<?xml version="1.0" encoding="iso-8859-1"?>
<!-- Generator: Adobe Illustrator 19.0.0, SVG Export Plug-In . SVG Version: 6.00 Build 0)  -->
<svg version="1.1" id="Capa_1" xmlns="http://www.w3.org/2000/svg" xmlns:xlink="http://www.w3.org/1999/xlink" x="0px" y="0px"
	 viewBox="0 0 407.055 407.055" style="enable-background:new 0 0 407.055 407.055;" xml:space="preserve">
<g>
	<g>
		<path d="M404.8,102.527l-165.6-97.2c-1.2-0.8-2-0.8-3.2-0.8l-32,2l-32-2c-1.2,0-2.4,0-3.2,0.8l-165.6,97.2
			c-1.6,0.8-3.2,2.8-3.2,4.8c0,3.2,2.4,6,5.2,6l24.8,1.6l-24.4,74c-0.8,2.8,0.4,5.6,2.4,6.8l24,14v91.6c0,2,1.2,4,2.8,4.8
			l164.4,95.2c0.4,0,0.4,0.4,0.8,0.4c0,0,0.4,0,0.4,0.4c0.8,0.4,1.2,0.4,2,0.4c0.8,0,1.2,0,2-0.4c0,0,0.4,0,0.4-0.4
			c0.4,0,0.4,0,0.8-0.4l164.4-95.2c2-1.2,2.8-3.2,2.8-5.2l0.8-92l23.2-13.6c2.4-1.2,3.6-4,2.4-6.8l-24.4-74l26.8-1.6
			c3.2,0,5.6-2.8,5.2-6C407.6,105.327,406.4,103.327,404.8,102.527z M209.6,22.527l74.4,43.6l73.6,43.2l-98,58l-50-29.2V22.527z
			 M24.8,103.327l148.4-87.2l12,0.8l-25.2,14.8l-41.6,24.4l-81.6,48L24.8,103.327z M198,22.527v115.6l-50,29.2l-24-14l-74.4-43.6
			l74.4-43.6L198,22.527z M18.4,188.127l23.2-69.6l154.8,92l-22.4,69.2l-76.8-45.2l-55.6-32.8L18.4,188.127z M197.2,386.527
			L44,298.127v-81.6l47.2,27.6l82.8,48.8c2.8,1.6,6.4,0.8,8-2c0.4-0.4,0.4-0.8,0.4-1.2l14.8-45.6V386.527z M204,200.527l-44.8-26.4
			l44.8-26l44.4,25.6L204,200.527z M362,298.127l-153.2,88.8v-142.4l14.8,45.6c0,0.4,0.4,0.8,0.4,1.2c1.6,2.8,5.2,3.6,8,2l82.8-48.8
			l48-28.4L362,298.127z M388,188.527l-22,12.8l-56.8,33.6l-76.8,44.8l-22.4-69.2l80-46.8l75.2-44L388,188.527z M371.2,104.127
			l-81.6-48l-66.8-39.2l12-0.8l148,86.8L371.2,104.127z"/>
	</g>
</g>
<g>
</g>
<g>
</g>
<g>
</g>
<g>
</g>
<g>
</g>
<g>
</g>
<g>
</g>
<g>
</g>
<g>
</g>
<g>
</g>
<g>
</g>
<g>
</g>
<g>
</g>
<g>
</g>
<g>
</g>
</svg>
