<svg id="_x31_px" enable-background="new 0 0 24 24" height="512" viewBox="0 0 24 24" width="512" xmlns="http://www.w3.org/2000/svg"><g id="XMLID_1_"><path d="m23.5 4.997c.28 0 .5.23.5.5 0 .28-.22.5-.5.5h-.5v-1z"/><path d="m1 4.997h22v1h-22z"/><path d="m14.5 14.997c1.85 0 3.45-1.12 4.14-2.73-.59.46-1.34.73-2.14.73h-6.5c-.28 0-.5-.22-.5-.5v-1.79l-3.29 3.29 3.29 3.3v-1.8c0-.27.22-.5.5-.5zm-9.35-.64c-.2-.2-.2-.51 0-.71l4.5-4.5c.14-.14.36-.19.54-.11.19.08.31.26.31.46v2.5h6c1.38 0 2.5-1.12 2.5-2.5 0-.27.22-.5.5-.5s.5.23.5.5v1c0 3.04-2.47 5.5-5.5 5.5h-4v2.5c0 .21-.12.39-.31.47-.06.02-.13.03-.19.03-.13 0-.26-.05-.35-.14z"/><path d="m1 4.997v1h-.5c-.28 0-.5-.22-.5-.5 0-.27.22-.5.5-.5z"/><path d="m21.5 1.997h-19c-.83 0-1.5.68-1.5 1.5v1.5h-.5c-.28 0-.5.23-.5.5v-2c0-1.37 1.12-2.5 2.5-2.5h19c1.38 0 2.5 1.13 2.5 2.5v2c0-.27-.22-.5-.5-.5h-.5v-1.5c0-.82-.67-1.5-1.5-1.5z"/><path d="m21.5 22.997h-19c-1.38 0-2.5-1.12-2.5-2.5v-15c0 .28.22.5.5.5h.5v14.5c0 .83.67 1.5 1.5 1.5h19c.83 0 1.5-.67 1.5-1.5v-14.5h.5c.28 0 .5-.22.5-.5v15c0 1.38-1.12 2.5-2.5 2.5z"/></g></svg>