<svg height="475pt" viewBox="-16 0 475 475.40008" width="475pt" xmlns="http://www.w3.org/2000/svg"><path d="m149.5 373.800781c-28.054688 0-50.800781 22.742188-50.800781 50.800781 0 28.054688 22.746093 50.796876 50.800781 50.796876s50.800781-22.742188 50.800781-50.796876c-.039062-28.042968-22.761719-50.761718-50.800781-50.800781zm0 81.597657c-17.011719 0-30.800781-13.789063-30.800781-30.796876 0-17.011718 13.789062-30.800781 30.800781-30.800781s30.800781 13.789063 30.800781 30.800781c-.007812 17.007813-13.792969 30.792969-30.800781 30.796876zm0 0"/><path d="m363.398438 373.800781c-28.054688 0-50.796876 22.742188-50.796876 50.800781 0 28.054688 22.742188 50.796876 50.796876 50.796876 28.058593 0 50.800781-22.742188 50.800781-50.796876-.039063-28.042968-22.757813-50.761718-50.800781-50.800781zm0 81.597657c-17.007813 0-30.796876-13.789063-30.796876-30.796876 0-17.011718 13.789063-30.800781 30.796876-30.800781 17.011718 0 30.800781 13.789063 30.800781 30.800781-.007813 17.007813-13.792969 30.792969-30.800781 30.796876zm0 0"/><path d="m432.398438 93.601562h-338.597657l-7.402343-43.601562c-4.855469-28.898438-29.894532-50.046875-59.199219-50h-17c-5.523438 0-10 4.476562-10 10s4.476562 10 10 10h17c19.527343-.078125 36.222656 14.035156 39.402343 33.300781l40.097657 236.300781c4.855469 28.894532 29.898437 50.046876 59.199219 50h228.203124c5.519532 0 10-4.480468 10-10 0-5.523437-4.480468-10-10-10h-228.101562c-19.527344.074219-36.222656-14.035156-39.398438-33.300781l-3.300781-19.199219h224.097657c26.214843.054688 49.40625-16.972656 57.203124-42l37.296876-118.5c.980468-3.035156.421874-6.355468-1.5-8.902343-1.875-2.542969-4.835938-4.0625-8-4.097657zm-46.898438 125.398438c-5.230469 16.691406-20.710938 28.039062-38.199219 28h-227.402343l-22.699219-133.5h321.5zm0 0"/></svg>