<?xml version="1.0" encoding="UTF-8" standalone="no"?>
<svg
   xmlns:dc="http://purl.org/dc/elements/1.1/"
   xmlns:cc="http://creativecommons.org/ns#"
   xmlns:rdf="http://www.w3.org/1999/02/22-rdf-syntax-ns#"
   xmlns:svg="http://www.w3.org/2000/svg"
   xmlns="http://www.w3.org/2000/svg"
   xmlns:sodipodi="http://sodipodi.sourceforge.net/DTD/sodipodi-0.dtd"
   xmlns:inkscape="http://www.inkscape.org/namespaces/inkscape"
   width="120.6684mm"
   height="33.488689mm"
   viewBox="0 0 120.6684 33.488689"
   version="1.1"
   id="svg8"
   inkscape:version="1.0.1 (1.0.1+r74)"
   sodipodi:docname="logo.svg">
  <defs
     id="defs2" />
  <sodipodi:namedview
     id="base"
     pagecolor="#ffffff"
     bordercolor="#666666"
     borderopacity="1.0"
     inkscape:pageopacity="0.0"
     inkscape:pageshadow="2"
     inkscape:zoom="0.99606029"
     inkscape:cx="251.88402"
     inkscape:cy="70.817887"
     inkscape:document-units="mm"
     inkscape:current-layer="layer1"
     inkscape:document-rotation="0"
     showgrid="false"
     inkscape:snap-bbox="true"
     inkscape:snap-bbox-midpoints="true"
     showguides="false"
     inkscape:guide-bbox="true"
     inkscape:snap-global="true"
     inkscape:window-width="1440"
     inkscape:window-height="876"
     inkscape:window-x="768"
     inkscape:window-y="230"
     inkscape:window-maximized="1">
    <sodipodi:guide
       position="-17.000067,52.414075"
       orientation="1,0"
       id="guide41" />
    <sodipodi:guide
       position="-17.000264,16.399766"
       orientation="0,-1"
       id="guide36" />
  </sodipodi:namedview>
  <metadata
     id="metadata5">
    <rdf:RDF>
      <cc:Work
         rdf:about="">
        <dc:format>image/svg+xml</dc:format>
        <dc:type
           rdf:resource="http://purl.org/dc/dcmitype/StillImage" />
        <dc:title></dc:title>
      </cc:Work>
    </rdf:RDF>
  </metadata>
  <g
     inkscape:label="Layer 1"
     inkscape:groupmode="layer"
     id="layer1"
     transform="translate(-47.869698,-126.90228)">
    <path
       style="fill:#000000;stroke-width:0.00599155"
       id="path73"
       d="" />
    <path
       style="fill:#000000;stroke-width:0.00599155"
       id="path71"
       d="" />
    <path
       style="fill:#000000;stroke-width:0.264583"
       id="path117"
       d="" />
    <g
       id="g64">
      <ellipse
         style="fill:#1e2e7a;fill-opacity:1;fill-rule:evenodd;stroke-width:0.264583"
         id="path24"
         cx="72.29641"
         cy="143.64662"
         rx="24.426712"
         ry="16.744345" />
      <ellipse
         style="fill:#ffe700;fill-opacity:1;fill-rule:evenodd;stroke-width:0.242448"
         id="path24-3"
         cx="72.29641"
         cy="142.5883"
         rx="23.090366"
         ry="14.873457" />
      <g
         id="g222"
         transform="translate(41.426777,-1.6036172)">
        <path
           id="path141"
           style="fill:#ffffff;stroke:none;stroke-width:0.999999px;stroke-linecap:butt;stroke-linejoin:miter;stroke-opacity:1"
           d="m 92.429688,496.99414 -5.050782,5.80859 -2.273437,7.57618 1.009765,17.67773 -18.435546,9.34375 -4.041016,9.0918 4.798828,7.07226 17.677734,8.33203 -1.009765,19.95118 4.798828,9.5957 8.585937,-0.50391 16.162106,-9.84961 2.01954,-2.08398 2.02148,2.08398 16.16211,9.84961 8.58594,0.50391 4.79882,-9.5957 -1.00976,-19.95118 17.67773,-8.33203 4.79688,-7.07226 -4.04102,-9.0918 -18.43359,-9.34375 1.00976,-17.67773 -2.27343,-7.57618 -5.05078,-5.80859 -11.61719,3.2832 -12.62695,10.39844 -12.62696,-10.39844 z"
           transform="scale(0.26458333)" />
        <g
           id="g127"
           transform="matrix(0.0597457,0,0,0.0597457,5.7166911,126.48031)"
           style="fill:#1e2e7a;fill-opacity:1">
          <path
             fill="#61dafb"
             d="m 666.3,296.5 c 0,-32.5 -40.7,-63.3 -103.1,-82.4 14.4,-63.6 8,-114.2 -20.2,-130.4 -6.5,-3.8 -14.1,-5.6 -22.4,-5.6 v 22.3 c 4.6,0 8.3,0.9 11.4,2.6 13.6,7.8 19.5,37.5 14.9,75.7 -1.1,9.4 -2.9,19.3 -5.1,29.4 -19.6,-4.8 -41,-8.5 -63.5,-10.9 -13.5,-18.5 -27.5,-35.3 -41.6,-50 32.6,-30.3 63.2,-46.9 84,-46.9 V 78 c 0,0 0,0 0,0 -27.5,0 -63.5,19.6 -99.9,53.6 C 384.4,97.8 348.4,78.4 320.9,78.4 v 22.3 c 20.7,0 51.4,16.5 84,46.6 -14,14.7 -28,31.4 -41.3,49.9 -22.6,2.4 -44,6.1 -63.6,11 -2.3,-10 -4,-19.7 -5.2,-29 -4.7,-38.2 1.1,-67.9 14.6,-75.8 3,-1.8 6.9,-2.6 11.5,-2.6 V 78.5 c 0,0 0,0 0,0 -8.4,0 -16,1.8 -22.6,5.6 -28.1,16.2 -34.4,66.7 -19.9,130.1 -62.2,19.2 -102.7,49.9 -102.7,82.3 0,32.5 40.7,63.3 103.1,82.4 -14.4,63.6 -8,114.2 20.2,130.4 6.5,3.8 14.1,5.6 22.5,5.6 27.5,0 63.5,-19.6 99.9,-53.6 36.4,33.8 72.4,53.2 99.9,53.2 8.4,0 16,-1.8 22.6,-5.6 28.1,-16.2 34.4,-66.7 19.9,-130.1 62,-19.1 102.5,-49.9 102.5,-82.3 z M 536.1,229.8 c -3.7,12.9 -8.3,26.2 -13.5,39.5 -4.1,-8 -8.4,-16 -13.1,-24 -4.6,-8 -9.5,-15.8 -14.4,-23.4 14.2,2.1 27.9,4.7 41,7.9 z m -45.8,106.5 c -7.8,13.5 -15.8,26.3 -24.1,38.2 -14.9,1.3 -30,2 -45.2,2 -15.1,0 -30.2,-0.7 -45,-1.9 -8.3,-11.9 -16.4,-24.6 -24.2,-38 -7.6,-13.1 -14.5,-26.4 -20.8,-39.8 6.2,-13.4 13.2,-26.8 20.7,-39.9 7.8,-13.5 15.8,-26.3 24.1,-38.2 14.9,-1.3 30,-2 45.2,-2 15.1,0 30.2,0.7 45,1.9 8.3,11.9 16.4,24.6 24.2,38 7.6,13.1 14.5,26.4 20.8,39.8 -6.3,13.4 -13.2,26.8 -20.7,39.9 z m 32.3,-13 c 5.4,13.4 10,26.8 13.8,39.8 -13.1,3.2 -26.9,5.9 -41.2,8 4.9,-7.7 9.8,-15.6 14.4,-23.7 4.6,-8 8.9,-16.1 13,-24.1 z M 421.2,430 c -9.3,-9.6 -18.6,-20.3 -27.8,-32 9,0.4 18.2,0.7 27.5,0.7 9.4,0 18.7,-0.2 27.8,-0.7 -9,11.7 -18.3,22.4 -27.5,32 z m -74.4,-58.9 c -14.2,-2.1 -27.9,-4.7 -41,-7.9 3.7,-12.9 8.3,-26.2 13.5,-39.5 4.1,8 8.4,16 13.1,24 4.7,8 9.5,15.8 14.4,23.4 z M 420.7,163 c 9.3,9.6 18.6,20.3 27.8,32 -9,-0.4 -18.2,-0.7 -27.5,-0.7 -9.4,0 -18.7,0.2 -27.8,0.7 9,-11.7 18.3,-22.4 27.5,-32 z m -74,58.9 c -4.9,7.7 -9.8,15.6 -14.4,23.7 -4.6,8 -8.9,16 -13,24 -5.4,-13.4 -10,-26.8 -13.8,-39.8 13.1,-3.1 26.9,-5.8 41.2,-7.9 z m -90.5,125.2 c -35.4,-15.1 -58.3,-34.9 -58.3,-50.6 0,-15.7 22.9,-35.6 58.3,-50.6 8.6,-3.7 18,-7 27.7,-10.1 5.7,19.6 13.2,40 22.5,60.9 -9.2,20.8 -16.6,41.1 -22.2,60.6 -9.9,-3.1 -19.3,-6.5 -28,-10.2 z M 310,490 c -13.6,-7.8 -19.5,-37.5 -14.9,-75.7 1.1,-9.4 2.9,-19.3 5.1,-29.4 19.6,4.8 41,8.5 63.5,10.9 13.5,18.5 27.5,35.3 41.6,50 -32.6,30.3 -63.2,46.9 -84,46.9 -4.5,-0.1 -8.3,-1 -11.3,-2.7 z m 237.2,-76.2 c 4.7,38.2 -1.1,67.9 -14.6,75.8 -3,1.8 -6.9,2.6 -11.5,2.6 -20.7,0 -51.4,-16.5 -84,-46.6 14,-14.7 28,-31.4 41.3,-49.9 22.6,-2.4 44,-6.1 63.6,-11 2.3,10.1 4.1,19.8 5.2,29.1 z m 38.5,-66.7 c -8.6,3.7 -18,7 -27.7,10.1 -5.7,-19.6 -13.2,-40 -22.5,-60.9 9.2,-20.8 16.6,-41.1 22.2,-60.6 9.9,3.1 19.3,6.5 28.1,10.2 35.4,15.1 58.3,34.9 58.3,50.6 -0.1,15.7 -23,35.6 -58.4,50.6 z"
             id="path119"
             style="fill:#1e2e7a;fill-opacity:1" />
          <polygon
             fill="#61dafb"
             points=""
             id="polygon121"
             style="fill:#1e2e7a;fill-opacity:1" />
          <circle
             fill="#61dafb"
             cx="420.89999"
             cy="296.5"
             r="45.700001"
             id="circle123"
             style="fill:#1e2e7a;fill-opacity:1" />
          <polygon
             fill="#61dafb"
             points=""
             id="polygon125"
             style="fill:#1e2e7a;fill-opacity:1" />
        </g>
      </g>
      <text
         xml:space="preserve"
         style="font-style:normal;font-weight:normal;font-size:16.6943px;line-height:0;font-family:sans-serif;fill:#1e2e7a;fill-opacity:1;stroke:none;stroke-width:0.223583"
         x="96.848129"
         y="143.84393"
         id="text226"
         transform="scale(1.019725,0.98065654)"><tspan
           sodipodi:role="line"
           id="tspan224"
           x="96.848129"
           y="143.84393"
           style="font-style:normal;font-variant:normal;font-weight:normal;font-stretch:normal;font-size:16.6943px;line-height:0.85;font-family:'World of Water';-inkscape-font-specification:'World of Water';fill:#1e2e7a;fill-opacity:1;stroke-width:0.223583">perdidos</tspan><tspan
           sodipodi:role="line"
           x="96.848129"
           y="158.03409"
           style="font-style:normal;font-variant:normal;font-weight:normal;font-stretch:normal;font-size:16.6943px;line-height:0.85;font-family:'World of Water';-inkscape-font-specification:'World of Water';fill:#1e2e7a;fill-opacity:1;stroke-width:0.223583"
           id="tspan228">em react</tspan></text>
    </g>
  </g>
</svg>
